<svg xmlns="http://www.w3.org/2000/svg" xmlns:xlink="http://www.w3.org/1999/xlink" id="Layer_1" x="0px" y="0px" viewBox="0 0 1440 185" style="enable-background:new 0 0 1440 185;" xml:space="preserve"><style type="text/css">	.st0{fill:#FFFFFF;}</style><path class="st0" d="M986.6,4.4c0-0.2,0.1-0.4,0.4-0.5c0.3-0.2,0.8-0.3,1.3-0.3h0.1c0.5,0,1,0.1,1.3,0.3c0,0,0,0,0,0 c0.2,0.1,0.3,0.2,0.3,0.4c0,0.1,0,0.1,0,0.2c0,0.5-0.8,0.8-1.7,0.8h0c0,0,0,0-0.1,0C987.4,5.3,986.6,4.9,986.6,4.4z"></path><path class="st0" d="M988.4,0.6c1.7,0,3.2,0.3,4.4,0.8l0.9-0.5c-1.4-0.6-3.3-1-5.3-1c-2.1,0-4.1,0.4-5.5,1.1l1,0.4 C985.1,1,986.7,0.6,988.4,0.6z"></path><path class="st0" d="M988.4,1.7c1.1,0,2.1,0.2,2.9,0.5l1-0.5c-1-0.4-2.4-0.7-3.8-0.7c-1.5,0-2.9,0.3-4,0.8l1,0.5 C986.3,1.9,987.3,1.7,988.4,1.7z"></path><path class="st0" d="M988.4,2.8c0.5,0,1,0.1,1.3,0.2l1-0.5c-0.6-0.3-1.5-0.4-2.3-0.4c-0.9,0-1.8,0.2-2.4,0.4l1.1,0.5 C987.5,2.8,987.9,2.8,988.4,2.8z"></path><path class="st0" d="M989,6.8l-0.1,3.3c0,0.2-0.3,0.4-0.7,0.4c-0.4,0-0.7-0.2-0.7-0.4l-0.1-3.3c0-0.2,0.3-0.4,0.8-0.4 C988.6,6.4,989,6.5,989,6.8C989,6.8,989,6.8,989,6.8z"></path><path class="st0" d="M988.9,13.3l-0.1,3.3c0,0.2-0.3,0.3-0.6,0.3c-0.3,0-0.6-0.1-0.6-0.3l-0.1-3.3c0-0.2,0.3-0.3,0.6-0.3 C988.6,13,988.9,13.1,988.9,13.3L988.9,13.3z"></path><path class="st0" d="M988.7,19.9l-0.1,3.3c0,0.1-0.2,0.2-0.5,0.2c-0.2,0-0.4-0.1-0.4-0.2l-0.1-3.3c0-0.1,0.2-0.3,0.5-0.3 C988.5,19.6,988.7,19.7,988.7,19.9L988.7,19.9z"></path><path class="st0" d="M988.6,26.4l-0.1,3.3c0,0.1-0.1,0.2-0.3,0.2c-0.2,0-0.3-0.1-0.3-0.2l-0.1-3.3c0-0.1,0.2-0.2,0.4-0.2 C988.4,26.2,988.6,26.3,988.6,26.4L988.6,26.4z"></path><path class="st0" d="M988.5,33l-0.1,3.3c0,0.1-0.1,0.1-0.2,0.1c-0.1,0-0.2,0-0.2-0.1L988,33c0-0.1,0.1-0.1,0.2-0.1 C988.3,32.8,988.4,32.9,988.5,33L988.5,33L988.5,33z"></path><path class="st0" d="M988.3,39.5l-0.1,3.3c0,0,0,0,0,0s0,0,0,0l-0.1-3.3c0,0,0-0.1,0.1-0.1C988.3,39.5,988.3,39.5,988.3,39.5z"></path><path class="st0" d="M1183.5,9.3c0-0.2,0.1-0.4,0.4-0.5c0.3-0.2,0.8-0.3,1.3-0.3h0.1c0.5,0,1,0.1,1.3,0.3c0,0,0,0,0,0 c0.2,0.1,0.3,0.2,0.3,0.4c0,0.1,0,0.1,0,0.2c0,0.5-0.8,0.8-1.7,0.8c0,0-0.1,0-0.1,0C1184.3,10.1,1183.5,9.7,1183.5,9.3z"></path><path class="st0" d="M1185.3,5.5c1.7,0,3.2,0.3,4.4,0.8l0.9-0.5c-1.4-0.6-3.3-1-5.3-1c-2.1,0-4.1,0.4-5.5,1.1l1,0.4 C1182,5.8,1183.6,5.5,1185.3,5.5z"></path><path class="st0" d="M1185.3,6.5c1.1,0,2.1,0.2,2.9,0.5l1-0.5c-1-0.4-2.4-0.7-3.8-0.7c-1.5,0-2.9,0.3-4,0.8l1,0.5 C1183.1,6.7,1184.2,6.5,1185.3,6.5z"></path><path class="st0" d="M1185.3,7.6c0.5,0,1,0.1,1.3,0.2l1-0.5c-0.6-0.3-1.5-0.4-2.3-0.4c-0.9,0-1.8,0.2-2.4,0.4l1.1,0.5 C1184.3,7.7,1184.8,7.6,1185.3,7.6z"></path><path class="st0" d="M1185.9,11.6l-0.1,3.3c0,0.2-0.3,0.4-0.7,0.4c-0.4,0-0.7-0.2-0.7-0.4l-0.1-3.3c0-0.2,0.3-0.4,0.8-0.4 C1185.5,11.2,1185.8,11.4,1185.9,11.6C1185.9,11.6,1185.9,11.6,1185.9,11.6z"></path><path class="st0" d="M1185.7,18.1l-0.1,3.3c0,0.2-0.3,0.3-0.6,0.3c-0.3,0-0.6-0.1-0.6-0.3l-0.1-3.3c0-0.2,0.3-0.3,0.6-0.3 C1185.4,17.8,1185.7,17.9,1185.7,18.1L1185.7,18.1z"></path><path class="st0" d="M1185.6,24.7l-0.1,3.3c0,0.1-0.2,0.2-0.5,0.2c-0.2,0-0.4-0.1-0.4-0.2l-0.1-3.3c0-0.1,0.2-0.3,0.5-0.3 C1185.4,24.4,1185.6,24.5,1185.6,24.7L1185.6,24.7z"></path><path class="st0" d="M1185.5,31.2l-0.1,3.3c0,0.1-0.1,0.2-0.3,0.2c-0.2,0-0.3-0.1-0.3-0.2l-0.1-3.3c0-0.1,0.2-0.2,0.4-0.2 C1185.3,31,1185.5,31.1,1185.5,31.2L1185.5,31.2z"></path><path class="st0" d="M1185.3,37.8l-0.1,3.3c0,0.1-0.1,0.1-0.2,0.1c-0.1,0-0.2,0-0.2-0.1l-0.1-3.3c0-0.1,0.1-0.1,0.2-0.1 C1185.2,37.6,1185.3,37.7,1185.3,37.8L1185.3,37.8z"></path><path class="st0" d="M1185.2,44.3l-0.1,3.3c0,0,0,0,0,0c0,0,0,0,0,0l-0.1-3.3c0,0,0-0.1,0.1-0.1 C1185.1,44.3,1185.2,44.3,1185.2,44.3z"></path><path class="st0" d="M1248.2,93.1c0-0.2,0.1-0.4,0.4-0.5c0.3-0.2,0.8-0.3,1.3-0.3h0.1c0.5,0,1,0.1,1.3,0.3c0,0,0,0,0,0 c0.2,0.1,0.3,0.2,0.3,0.4c0,0.1,0,0.1,0,0.2c0,0.5-0.8,0.8-1.7,0.8c0,0-0.1,0-0.1,0C1248.9,93.9,1248.2,93.5,1248.2,93.1z"></path><path class="st0" d="M1249.9,89.3c1.7,0,3.2,0.3,4.4,0.8l0.9-0.5c-1.4-0.6-3.3-1-5.3-1c-2.1,0-4.1,0.4-5.5,1.1l1,0.4 C1246.6,89.6,1248.2,89.3,1249.9,89.3z"></path><path class="st0" d="M1249.9,90.3c1.1,0,2.1,0.2,2.9,0.5l1-0.5c-1-0.4-2.4-0.7-3.8-0.7c-1.5,0-2.9,0.3-4,0.8l1,0.5 C1247.8,90.5,1248.8,90.3,1249.9,90.3z"></path><path class="st0" d="M1249.9,91.4c0.5,0,1,0.1,1.3,0.2l1-0.5c-0.6-0.3-1.5-0.4-2.3-0.4c-0.9,0-1.8,0.2-2.4,0.4l1.1,0.5 C1249,91.5,1249.4,91.4,1249.9,91.4z"></path><path class="st0" d="M1250.5,95.4l-0.1,3.3c0,0.2-0.3,0.4-0.7,0.4c-0.4,0-0.7-0.2-0.7-0.4l-0.1-3.3c0-0.2,0.3-0.4,0.8-0.4 C1250.1,95,1250.5,95.2,1250.5,95.4C1250.5,95.4,1250.5,95.4,1250.5,95.4z"></path><path class="st0" d="M1250.4,102l-0.1,3.3c0,0.2-0.3,0.3-0.6,0.3c-0.3,0-0.6-0.1-0.6-0.3l-0.1-3.3c0-0.2,0.3-0.3,0.6-0.3 C1250.1,101.6,1250.4,101.8,1250.4,102L1250.4,102z"></path><path class="st0" d="M1250.2,108.5l-0.1,3.3c0,0.1-0.2,0.2-0.5,0.2c-0.2,0-0.4-0.1-0.4-0.2l-0.1-3.3c0-0.1,0.2-0.3,0.5-0.3 C1250,108.2,1250.2,108.4,1250.2,108.5L1250.2,108.5z"></path><path class="st0" d="M1250.1,115.1l-0.1,3.3c0,0.1-0.1,0.2-0.3,0.2c-0.2,0-0.3-0.1-0.3-0.2l-0.1-3.3c0-0.1,0.2-0.2,0.4-0.2 C1249.9,114.9,1250.1,114.9,1250.1,115.1L1250.1,115.1z"></path><path class="st0" d="M1250,121.6l-0.1,3.3c0,0.1-0.1,0.1-0.2,0.1c-0.1,0-0.2,0-0.2-0.1l-0.1-3.3c0-0.1,0.1-0.1,0.2-0.1 C1249.8,121.5,1249.9,121.5,1250,121.6L1250,121.6z"></path><path class="st0" d="M1249.8,128.2l-0.1,3.3c0,0,0,0,0,0s0,0,0,0l-0.1-3.3c0,0,0.1-0.1,0.1-0.1 C1249.8,128.1,1249.8,128.1,1249.8,128.2z"></path><path class="st0" d="M1366.4,185l1.3-0.7c1.2-0.6,11.9-6.1,11.9-8.2v-86l-5.3-3.7v-4.3h23l3.7-3.1h24l5.6,3.8h10.5v-0.8h-9.7 l-5.6-3.8h-25.6l-3.7,3.1h-23.7v5.4l5.3,3.7v85.7c0,1.2-5.7,4.6-10.1,6.9v-44.7l-21.8,3.6l3.3,1.5v7.5h-21.6v-19.2h-4.5v-16 l-1.6-0.1l-4.2,17.6l-1-1l-3.3-19.5l-1.6,0v18.7l-3.7,0.5V149h-15.4v-5.2h-5.1v-2.9h-7.1v10h-10.1v-9.6h-11.4v39.5h-4.2v-47h-9.6v40 c-5.2,2.4-12.5-0.5-13.9-1.1V73.2l-26.7-3.6l44.7-11.8h-31v-3.6h-66.1v4.3h-29.7l43,11.5l-20.1,3.3v83.2l-9,4.7l-6.4-4.9v-4.9h-26.5 v-12.9h-3.4l-1.7-13.1l-3.9,13.8h-6.9l-3-15.4l-2.9,14.5l-3,1.2v32.6h-13.7v-19.3h-25.2v19.3h-28.9v-38.1h-3.7v-29.5h-10.3v-23 l-6.9-2.7L988.6,46l-1.6,0l-3.1,33.2l-7,3.4v22l-3.7,1.2V133l-4.5,1.5v20.9l-3.5,0.4v12.9h-14.8v4.3l-0.8,0.7 c-1.9,0.3-8.8,0-13.4-0.3v-44.9l-9.4-1.7v-0.6l2.3-0.3v-3.2h-16.7l-0.2,1.6l2,1.6v0.9l-7.9,0.7v20.3l-3.5,0.8v6.5H886v11.9h-23.4 v-8.3h-18.7l-2.9-3.4h-36.8v-37.8l-4.7-2.8l-2.3-15.8l-1.6,0l-3.8,16.9l-7.4,0.9v36.2h-18.2v25.5c-4,1.3-8.8,0.6-10.3,0.4v-23.2h-11 l0,0.4c0,0.2,0.2,19.9,0,21.3c-0.1,1-0.2,1-3.8,1.3l-1.5,0.1l-741.6,0v0.8h741.7l1.6-0.1c3.7-0.3,4.9-0.4,5.2-2.1c0.2-1.4,0-18,0-21 h7.8v22.9l0.5,0.1c0.3,0.1,7,1.6,12.6-0.5l0.3-0.1v-25.1H786v-36.4l7.3-0.8l3-13.3l1.7,11.8l4.7,2.8v38.4H840l2.9,3.4H861v8.3h26.5 v-11.9h16.8v-6.8l3.5-0.8v-20.1l7.9-0.7v-1.9l-2-1.6l0.1-0.6h13.7v1.7l-2.3,0.3v1.8l9.4,1.7v45l0.7,0c1.3,0.1,12.6,0.8,15.2,0.2 l0.2-0.1l1.3-1.1v-3.7h14.8v-13l3.5-0.4V135l4.5-1.5v-27.2l3.7-1.2V83l7-3.4l0-0.2l2-21.4l0.8,21.1l6.9,2.7v23.4h10.3v29.5h3.7v38.1 h32v-19.3h22v19.3h16.8v-33l2.9-1.1l0-0.2l1.3-6.7l1.6,8.2h9.7l0.1-0.3l1.9-6.6l0.8,6.3h3.3v12.9h26.6v4.3l7.7,6l10.8-5.7V73.8 l22.7-3.7l-40.6-10.9h24.8v-4.3h62.9v3.6h26L1200,69.8l29.5,4v99.3l0.3,0.1c0.1,0,9.8,4.5,16.6,1.1l0.2-0.1v-39.5h6.5v47h7.3v-39.5 h8.2v9.6h13.3v-10h3.9v2.9h5.2v5.2h18.6v-17.1l3.7-0.5v-10l1.8,10.4l3.4,3.5l3.3-13.8v10.2h4.5v19.2h24.7v-8.7l-1.8-0.8l17.2-2.8 L1366.4,185L1366.4,185z"></path><path class="st0" d="M1408.3,35.1c0-0.2-0.1-0.4-0.4-0.5c-0.3-0.2-0.8-0.3-1.3-0.3h-0.1c-0.5,0-1,0.1-1.3,0.3c0,0,0,0,0,0 c-0.2,0.1-0.3,0.2-0.3,0.4c0,0.1,0,0.1,0,0.2c0,0.5,0.8,0.8,1.7,0.8c0,0,0.1,0,0.1,0C1407.6,35.9,1408.3,35.5,1408.3,35.1z"></path><path class="st0" d="M1406.5,31.3c-1.7,0-3.2,0.3-4.4,0.8l-0.9-0.5c1.4-0.6,3.3-1,5.3-1c2.1,0,4,0.4,5.5,1.1l-1,0.4 C1409.9,31.6,1408.3,31.3,1406.5,31.3z"></path><path class="st0" d="M1406.5,32.3c-1.1,0-2.1,0.2-2.9,0.5l-1-0.5c1-0.4,2.4-0.7,3.8-0.7c1.5,0,2.9,0.3,3.9,0.8l-1,0.5 C1408.7,32.5,1407.7,32.3,1406.5,32.3z"></path><path class="st0" d="M1406.5,33.4c-0.5,0-1,0.1-1.3,0.2l-1-0.5c0.6-0.3,1.4-0.4,2.3-0.4c0.9,0,1.8,0.2,2.4,0.4l-1.1,0.5 C1407.5,33.5,1407,33.4,1406.5,33.4z"></path><path class="st0" d="M1406,37.4l0,1.6c0,0.2,0.3,0.4,0.8,0.4c0.4,0,0.7-0.2,0.8-0.4l0-1.6c0-0.2-0.3-0.4-0.8-0.4 C1406.3,37,1406,37.2,1406,37.4L1406,37.4z"></path><path class="st0" d="M1406.1,42.2l0.1,3.2c0,0.2,0.3,0.3,0.6,0.3s0.6-0.1,0.6-0.3l0.1-3.2c0-0.2-0.3-0.4-0.7-0.4 C1406.4,41.8,1406.1,42,1406.1,42.2L1406.1,42.2z"></path><path class="st0" d="M1406.2,48.5l0.1,3.2c0,0.1,0.2,0.3,0.5,0.3c0.3,0,0.5-0.1,0.5-0.3l0.1-3.2c0-0.2-0.2-0.3-0.6-0.3 S1406.2,48.4,1406.2,48.5L1406.2,48.5z"></path><path class="st0" d="M1406.3,54.9l0.1,3.2c0,0.1,0.2,0.2,0.4,0.2c0.2,0,0.3-0.1,0.4-0.2l0.1-3.2c0-0.1-0.2-0.2-0.4-0.2 C1406.5,54.6,1406.3,54.7,1406.3,54.9L1406.3,54.9L1406.3,54.9z"></path><path class="st0" d="M1406.4,61.2l0.1,3.2c0,0.1,0.1,0.1,0.2,0.1c0.1,0,0.2-0.1,0.2-0.1l0.1-3.2c0-0.1-0.1-0.2-0.3-0.2 S1406.4,61.1,1406.4,61.2z"></path><path class="st0" d="M1406.6,67.5l0.1,3.2c0,0,0,0.1,0.1,0.1c0.1,0,0.1,0,0.1-0.1l0.1-3.2c0,0-0.1-0.1-0.2-0.1 C1406.7,67.4,1406.6,67.5,1406.6,67.5z"></path><path class="st0" d="M1406.7,73.8l0,1.6L1406.7,73.8C1406.8,73.8,1406.8,73.8,1406.7,73.8C1406.7,73.8,1406.7,73.8,1406.7,73.8z"></path><path class="st0" d="M1314.2,68.4c0-0.2-0.1-0.4-0.4-0.5c-0.3-0.2-0.8-0.3-1.3-0.3h-0.1c-0.5,0-1,0.1-1.3,0.3c0,0,0,0,0,0 c-0.2,0.1-0.3,0.2-0.3,0.4c0,0.1,0,0.1,0,0.2c0,0.5,0.8,0.8,1.7,0.8c0,0,0.1,0,0.1,0C1313.5,69.2,1314.2,68.8,1314.2,68.4z"></path><path class="st0" d="M1312.5,64.6c-1.7,0-3.2,0.3-4.4,0.8l-0.9-0.5c1.4-0.6,3.3-1,5.3-1c2.1,0,4.1,0.4,5.5,1.1l-1,0.4 C1315.8,64.9,1314.2,64.6,1312.5,64.6z"></path><path class="st0" d="M1312.5,65.6c-1.1,0-2.1,0.2-2.9,0.5l-1-0.5c1-0.4,2.4-0.7,3.8-0.7c1.5,0,2.9,0.3,4,0.8l-1,0.5 C1314.6,65.8,1313.6,65.6,1312.5,65.6z"></path><path class="st0" d="M1312.5,66.7c-0.5,0-0.9,0.1-1.3,0.2l-1-0.5c0.6-0.3,1.4-0.4,2.3-0.4c0.9,0,1.8,0.2,2.4,0.4l-1.1,0.5 C1313.4,66.8,1313,66.7,1312.5,66.7z"></path><path class="st0" d="M1311.9,70.7l0.1,3.3c0,0.2,0.3,0.4,0.7,0.4c0.4,0,0.7-0.2,0.7-0.4l0.1-3.3c0-0.2-0.3-0.4-0.8-0.4 C1312.3,70.3,1311.9,70.5,1311.9,70.7L1311.9,70.7L1311.9,70.7z"></path><path class="st0" d="M1312,77.2l0.1,3.3c0,0.2,0.3,0.3,0.6,0.3c0.3,0,0.6-0.1,0.6-0.3l0.1-3.3c0-0.2-0.3-0.3-0.6-0.3 C1312.3,76.9,1312,77,1312,77.2L1312,77.2z"></path><path class="st0" d="M1312.2,83.8l0.1,3.3c0,0.1,0.2,0.2,0.5,0.2s0.4-0.1,0.4-0.2l0.1-3.3c0-0.1-0.2-0.3-0.5-0.3 C1312.4,83.5,1312.2,83.6,1312.2,83.8L1312.2,83.8z"></path><path class="st0" d="M1312.3,90.3l0.1,3.3c0,0.1,0.1,0.2,0.3,0.2c0.2,0,0.3-0.1,0.3-0.2l0.1-3.3c0-0.1-0.2-0.2-0.4-0.2 C1312.5,90.1,1312.3,90.2,1312.3,90.3L1312.3,90.3z"></path><path class="st0" d="M1312.4,96.9l0.1,3.3c0,0.1,0.1,0.1,0.2,0.1c0.1,0,0.2,0,0.2-0.1l0.1-3.3c0-0.1-0.1-0.1-0.3-0.1 C1312.6,96.8,1312.4,96.8,1312.4,96.9L1312.4,96.9L1312.4,96.9z"></path><path class="st0" d="M1312.6,103.4l0.1,3.3c0,0,0,0,0.1,0c0,0,0,0,0,0l0.1-3.3c0,0-0.1-0.1-0.1-0.1 C1312.6,103.4,1312.6,103.4,1312.6,103.4z"></path><path class="st0" d="M797.7,52.7c0-0.2-0.1-0.4-0.4-0.5c-0.3-0.2-0.8-0.3-1.3-0.3h-0.1c-0.5,0-1,0.1-1.3,0.3c0,0,0,0,0,0 c-0.2,0.1-0.3,0.2-0.3,0.4c0,0.1,0,0.1,0,0.2c0,0.5,0.8,0.8,1.7,0.8h0c0,0,0,0,0.1,0C797,53.5,797.7,53.2,797.7,52.7z"></path><path class="st0" d="M795.9,48.9c-1.7,0-3.2,0.3-4.4,0.8l-0.9-0.5c1.4-0.6,3.3-1,5.3-1c2.1,0,4.1,0.4,5.5,1.1l-1,0.4 C799.3,49.3,797.7,48.9,795.9,48.9z"></path><path class="st0" d="M795.9,50c-1.1,0-2.1,0.2-2.9,0.5l-1-0.5c1-0.4,2.4-0.7,3.8-0.7c1.5,0,2.9,0.3,4,0.8l-1,0.5 C798.1,50.2,797.1,50,795.9,50z"></path><path class="st0" d="M795.9,51c-0.5,0-1,0.1-1.3,0.2l-1-0.5c0.6-0.3,1.5-0.4,2.3-0.4c0.9,0,1.8,0.2,2.4,0.4l-1.1,0.5 C796.9,51.1,796.4,51,795.9,51z"></path><path class="st0" d="M795.4,55.1l0.1,3.3c0,0.2,0.3,0.4,0.7,0.4c0.4,0,0.7-0.2,0.7-0.4l0.1-3.3c0-0.2-0.3-0.4-0.8-0.4 C795.7,54.6,795.4,54.8,795.4,55.1C795.4,55,795.4,55.1,795.4,55.1z"></path><path class="st0" d="M795.5,61.6l0.1,3.3c0,0.2,0.3,0.3,0.6,0.3c0.3,0,0.6-0.1,0.6-0.3l0.1-3.3c0-0.2-0.3-0.3-0.6-0.3 S795.5,61.4,795.5,61.6C795.5,61.6,795.5,61.6,795.5,61.6z"></path><path class="st0" d="M795.6,68.1l0.1,3.3c0,0.1,0.2,0.2,0.5,0.2c0.2,0,0.4-0.1,0.4-0.2l0.1-3.3c0-0.1-0.2-0.3-0.5-0.3 C795.9,67.9,795.6,68,795.6,68.1L795.6,68.1L795.6,68.1z"></path><path class="st0" d="M795.8,74.7l0.1,3.3c0,0.1,0.1,0.2,0.3,0.2c0.2,0,0.3-0.1,0.3-0.2l0.1-3.3c0-0.1-0.2-0.2-0.4-0.2 S795.8,74.6,795.8,74.7L795.8,74.7z"></path><path class="st0" d="M795.9,81.2l0.1,3.3c0,0.1,0.1,0.1,0.2,0.1c0.1,0,0.2,0,0.2-0.1l0.1-3.3c0-0.1-0.1-0.1-0.2-0.1 C796,81.1,795.9,81.2,795.9,81.2L795.9,81.2z"></path><path class="st0" d="M796,87.8l0.1,3.3c0,0,0,0,0,0s0,0,0,0l0.1-3.3c0,0,0-0.1-0.1-0.1C796.1,87.7,796,87.8,796,87.8z"></path><path class="st0" d="M1086.1,79.9c0-0.2-0.1-0.4-0.4-0.5c-0.3-0.2-0.8-0.3-1.3-0.3h-0.1c-0.5,0-1,0.1-1.3,0.3c0,0,0,0,0,0 c-0.2,0.1-0.3,0.2-0.3,0.4c0,0.1,0,0.1,0,0.2c0,0.5,0.8,0.8,1.7,0.8h0c0,0,0,0,0.1,0C1085.4,80.7,1086.1,80.4,1086.1,79.9z"></path><path class="st0" d="M1084.3,76.1c-1.7,0-3.2,0.3-4.4,0.8l-0.9-0.5c1.4-0.6,3.3-1,5.3-1c2.1,0,4.1,0.4,5.5,1.1l-1,0.4 C1087.7,76.4,1086.1,76.1,1084.3,76.1z"></path><path class="st0" d="M1084.3,77.2c-1.1,0-2.1,0.2-2.9,0.5l-1-0.5c1-0.4,2.4-0.7,3.8-0.7c1.5,0,2.9,0.3,4,0.8l-1,0.5 C1086.5,77.4,1085.5,77.2,1084.3,77.2z"></path><path class="st0" d="M1084.3,78.2c-0.5,0-1,0.1-1.3,0.2l-1-0.5c0.6-0.3,1.5-0.4,2.3-0.4c0.9,0,1.8,0.2,2.4,0.4l-1.1,0.5 C1085.3,78.3,1084.8,78.2,1084.3,78.2z"></path><path class="st0" d="M1083.8,82.2l0.1,3.3c0,0.2,0.3,0.4,0.7,0.4c0.4,0,0.7-0.2,0.7-0.4l0.1-3.3c0-0.2-0.3-0.4-0.8-0.4 C1084.1,81.8,1083.8,82,1083.8,82.2C1083.8,82.2,1083.8,82.2,1083.8,82.2z"></path><path class="st0" d="M1083.9,88.8l0.1,3.3c0,0.2,0.3,0.3,0.6,0.3c0.3,0,0.6-0.1,0.6-0.3l0.1-3.3c0-0.2-0.3-0.3-0.6-0.3 C1084.2,88.4,1083.9,88.6,1083.9,88.8L1083.9,88.8z"></path><path class="st0" d="M1084,95.3l0.1,3.3c0,0.1,0.2,0.2,0.5,0.2c0.2,0,0.4-0.1,0.4-0.2l0.1-3.3c0-0.1-0.2-0.3-0.5-0.3 C1084.3,95.1,1084,95.2,1084,95.3L1084,95.3z"></path><path class="st0" d="M1084.2,101.9l0.1,3.3c0,0.1,0.2,0.2,0.3,0.2c0.2,0,0.3-0.1,0.3-0.2l0.1-3.3c0-0.1-0.2-0.2-0.4-0.2 C1084.3,101.7,1084.2,101.8,1084.2,101.9L1084.2,101.9z"></path><path class="st0" d="M1084.3,108.4l0.1,3.3c0,0.1,0.1,0.1,0.2,0.1c0.1,0,0.2,0,0.2-0.1l0.1-3.3c0-0.1-0.1-0.1-0.2-0.1 C1084.4,108.3,1084.3,108.4,1084.3,108.4L1084.3,108.4L1084.3,108.4z"></path><path class="st0" d="M1084.4,115l0.1,3.3c0,0,0,0,0,0c0,0,0,0,0,0l0.1-3.3c0,0-0.1-0.1-0.1-0.1 C1084.5,114.9,1084.4,114.9,1084.4,115z"></path><path class="st0" d="M1051.4,109.4c0-0.2-0.1-0.4-0.4-0.5c-0.3-0.2-0.8-0.3-1.3-0.3h-0.1c-0.5,0-1,0.1-1.3,0.3c0,0,0,0,0,0 c-0.2,0.1-0.3,0.2-0.3,0.4c0,0.1,0,0.1,0,0.2c0,0.5,0.8,0.8,1.7,0.8l0,0c0,0,0.1,0,0.1,0C1050.6,110.2,1051.4,109.8,1051.4,109.4z"></path><path class="st0" d="M1049.6,105.6c-1.7,0-3.2,0.3-4.4,0.8l-0.9-0.5c1.4-0.6,3.3-1,5.3-1c2.1,0,4.1,0.4,5.5,1.1l-1,0.4 C1052.9,105.9,1051.3,105.6,1049.6,105.6z"></path><path class="st0" d="M1049.6,106.6c-1.1,0-2.1,0.2-2.9,0.5l-1-0.5c1-0.4,2.4-0.7,3.8-0.7c1.5,0,2.9,0.3,4,0.8l-1,0.5 C1051.7,106.8,1050.7,106.6,1049.6,106.6z"></path><path class="st0" d="M1049.6,107.7c-0.5,0-1,0.1-1.3,0.2l-1-0.5c0.6-0.3,1.4-0.4,2.3-0.4c0.9,0,1.8,0.2,2.4,0.4l-1.1,0.5 C1050.6,107.8,1050.1,107.7,1049.6,107.7z"></path><path class="st0" d="M1049,111.7l0.1,3.3c0,0.2,0.3,0.4,0.7,0.4c0.4,0,0.7-0.2,0.7-0.4l0.1-3.3c0-0.2-0.3-0.4-0.8-0.4 C1049.4,111.3,1049,111.5,1049,111.7C1049,111.7,1049,111.7,1049,111.7z"></path><path class="st0" d="M1049.2,118.2l0.1,3.3c0,0.2,0.3,0.3,0.6,0.3c0.3,0,0.6-0.1,0.6-0.3l0.1-3.3c0-0.2-0.3-0.3-0.6-0.3 C1049.5,117.9,1049.2,118.1,1049.2,118.2L1049.2,118.2z"></path><path class="st0" d="M1049.3,124.8l0.1,3.3c0,0.1,0.2,0.2,0.5,0.2c0.2,0,0.4-0.1,0.4-0.2l0.1-3.3c0-0.1-0.2-0.3-0.5-0.3 C1049.5,124.5,1049.3,124.6,1049.3,124.8L1049.3,124.8z"></path><path class="st0" d="M1049.4,131.3l0.1,3.3c0,0.1,0.1,0.2,0.3,0.2c0.2,0,0.3-0.1,0.3-0.2l0.1-3.3c0-0.1-0.2-0.2-0.4-0.2 C1049.6,131.1,1049.4,131.2,1049.4,131.3L1049.4,131.3z"></path><path class="st0" d="M1049.6,137.9l0.1,3.3c0,0.1,0.1,0.1,0.2,0.1c0.1,0,0.2,0,0.2-0.1l0.1-3.3c0-0.1-0.1-0.1-0.2-0.1 C1049.7,137.8,1049.6,137.8,1049.6,137.9L1049.6,137.9z"></path><path class="st0" d="M1049.7,144.4l0.1,3.3c0,0,0,0,0,0c0,0,0,0,0,0l0.1-3.3c0,0-0.1-0.1-0.1-0.1 C1049.7,144.4,1049.7,144.4,1049.7,144.4z"></path><path class="st0" d="M751.6,113.2c0-0.2-0.1-0.4-0.4-0.5c-0.3-0.2-0.8-0.3-1.3-0.3h-0.1c-0.5,0-1,0.1-1.3,0.3c0,0,0,0,0,0 c-0.2,0.1-0.3,0.2-0.3,0.4c0,0.1,0,0.1,0,0.2c0,0.5,0.8,0.8,1.7,0.8h0c0,0,0,0,0.1,0C750.9,114,751.6,113.6,751.6,113.2z"></path><path class="st0" d="M749.8,109.4c-1.7,0-3.2,0.3-4.4,0.8l-0.9-0.5c1.4-0.6,3.3-1,5.3-1c2.1,0,4.1,0.4,5.5,1.1l-1,0.4 C753.1,109.7,751.6,109.4,749.8,109.4z"></path><path class="st0" d="M749.8,110.4c-1.1,0-2.1,0.2-2.9,0.5l-1-0.5c1-0.4,2.4-0.7,3.8-0.7c1.5,0,2.9,0.3,4,0.8l-1,0.5 C752,110.6,750.9,110.4,749.8,110.4z"></path><path class="st0" d="M749.8,111.5c-0.5,0-1,0.1-1.3,0.2l-1-0.5c0.6-0.3,1.5-0.4,2.3-0.4c0.9,0,1.8,0.2,2.4,0.4l-1.1,0.5 C750.8,111.6,750.3,111.5,749.8,111.5z"></path><path class="st0" d="M749.2,115.5l0.1,3.3c0,0.2,0.3,0.4,0.7,0.4c0.4,0,0.7-0.2,0.7-0.4l0.1-3.3c0-0.2-0.3-0.4-0.8-0.4 C749.6,115.1,749.3,115.3,749.2,115.5C749.2,115.5,749.2,115.5,749.2,115.5z"></path><path class="st0" d="M749.4,122.1l0.1,3.3c0,0.2,0.3,0.3,0.6,0.3c0.3,0,0.6-0.1,0.6-0.3l0.1-3.3c0-0.2-0.3-0.3-0.6-0.3 C749.7,121.7,749.4,121.9,749.4,122.1L749.4,122.1z"></path><path class="st0" d="M749.5,128.6l0.1,3.3c0,0.1,0.2,0.2,0.5,0.2c0.2,0,0.4-0.1,0.4-0.2l0.1-3.3c0-0.1-0.2-0.3-0.5-0.3 C749.8,128.3,749.5,128.5,749.5,128.6L749.5,128.6z"></path><path class="st0" d="M749.7,135.2l0.1,3.3c0,0.1,0.1,0.2,0.3,0.2c0.2,0,0.3-0.1,0.3-0.2l0.1-3.3c0-0.1-0.2-0.2-0.4-0.2 S749.7,135,749.7,135.2L749.7,135.2z"></path><path class="st0" d="M749.8,141.7l0.1,3.3c0,0.1,0.1,0.1,0.2,0.1c0.1,0,0.2,0,0.2-0.1l0.1-3.3c0-0.1-0.1-0.1-0.2-0.1 C749.9,141.6,749.8,141.6,749.8,141.7L749.8,141.7L749.8,141.7z"></path><path class="st0" d="M749.9,148.3l0.1,3.3c0,0,0,0,0,0s0,0,0,0l0.1-3.3c0,0,0-0.1-0.1-0.1C750,148.2,749.9,148.2,749.9,148.3z"></path><path class="st0" d="M921.5,78.5c0-0.2-0.1-0.4-0.4-0.5c-0.3-0.2-0.8-0.3-1.3-0.3h-0.1c-0.5,0-1,0.1-1.3,0.3c0,0,0,0,0,0 c-0.2,0.1-0.3,0.2-0.3,0.4c0,0.1,0,0.1,0,0.2c0,0.5,0.8,0.8,1.7,0.8h0c0,0,0,0,0.1,0C920.8,79.3,921.5,79,921.5,78.5z"></path><path class="st0" d="M919.7,74.7c-1.7,0-3.2,0.3-4.4,0.8l-0.9-0.5c1.4-0.6,3.3-1,5.3-1c2.1,0,4.1,0.4,5.5,1.1l-1,0.4 C923.1,75.1,921.5,74.7,919.7,74.7z"></path><path class="st0" d="M919.7,75.8c-1.1,0-2.1,0.2-2.9,0.5l-1-0.5c1-0.4,2.4-0.7,3.8-0.7c1.5,0,2.9,0.3,4,0.8l-1,0.5 C921.9,76,920.8,75.8,919.7,75.8z"></path><path class="st0" d="M919.7,76.8c-0.5,0-1,0.1-1.3,0.2l-1-0.5c0.6-0.3,1.5-0.4,2.3-0.4c0.9,0,1.8,0.2,2.4,0.4l-1.1,0.5 C920.7,76.9,920.2,76.8,919.7,76.8z"></path><path class="st0" d="M919.1,80.9l0.1,3.3c0,0.2,0.3,0.4,0.7,0.4c0.4,0,0.7-0.2,0.7-0.4l0.1-3.3c0-0.2-0.3-0.4-0.8-0.4 C919.5,80.4,919.2,80.6,919.1,80.9L919.1,80.9L919.1,80.9z"></path><path class="st0" d="M919.3,87.4l0.1,3.3c0,0.2,0.3,0.3,0.6,0.3c0.3,0,0.6-0.1,0.6-0.3l0.1-3.3c0-0.2-0.3-0.3-0.6-0.3 C919.6,87.1,919.3,87.2,919.3,87.4C919.3,87.4,919.3,87.4,919.3,87.4z"></path><path class="st0" d="M919.4,93.9l0.1,3.3c0,0.1,0.2,0.2,0.5,0.2c0.2,0,0.4-0.1,0.4-0.2l0.1-3.3c0-0.1-0.2-0.3-0.5-0.3 C919.7,93.7,919.4,93.8,919.4,93.9L919.4,93.9L919.4,93.9z"></path><path class="st0" d="M919.6,100.5l0.1,3.3c0,0.1,0.1,0.2,0.3,0.2c0.2,0,0.3-0.1,0.3-0.2l0.1-3.3c0-0.1-0.2-0.2-0.4-0.2 S919.6,100.4,919.6,100.5L919.6,100.5z"></path><path class="st0" d="M919.7,107l0.1,3.3c0,0,0.1,0.1,0.2,0.1c0.1,0,0.2,0,0.2-0.1l0.1-3.3c0-0.1-0.1-0.1-0.2-0.1 C919.8,106.9,919.7,107,919.7,107L919.7,107L919.7,107z"></path><path class="st0" d="M919.8,113.6l0.1,3.3c0,0,0,0,0,0s0,0,0,0l0.1-3.3c0,0,0-0.1-0.1-0.1C919.9,113.5,919.8,113.6,919.8,113.6z"></path></svg>